<!DOCTYPE svg PUBLIC "-//W3C//DTD SVG 1.1//EN" "http://www.w3.org/Graphics/SVG/1.1/DTD/svg11.dtd"> <svg width="521px" height="521px" version="1.1" baseProfile="full" xmlns="http://www.w3.org/2000/svg" xmlns:xlink="http://www.w3.org/1999/xlink" xmlns:ev="http://www.w3.org/2001/xml-events"><polygon fill="rgb(228,119,25)" stroke="rgb(228,119,25)" points="210.37769955228168,71.99620997905731 152.17991868565605,45.49501407146454 211.5954381907144,65.2001484632492"></polygon><polygon fill="rgb(119,57,0)" stroke="rgb(119,57,0)" points="149.27699545431642,98.24580669403076 145.48387614124294,72.19052624702454 177.52998701212164,68.9627268910408"></polygon><polygon fill="rgb(119,57,0)" stroke="rgb(119,57,0)" points="177.52998701212164,68.9627268910408 145.48387614124294,72.19052624702454 152.17991868565605,45.49501407146454"></polygon><polygon fill="rgb(247,132,25)" stroke="rgb(247,132,25)" points="236.32009128466515,65.01873922348022 210.37769955228168,71.99620997905731 211.5954381907144,65.2001484632492"></polygon><polygon fill="rgb(247,132,25)" stroke="rgb(247,132,25)" points="211.5954381907144,65.2001484632492 257.72120328318624,52.47393047809601 236.32009128466515,65.01873922348022"></polygon><polygon fill="rgb(119,57,0)" stroke="rgb(119,57,0)" points="144.97581034893938,100.33892571926117 149.27699545431642,98.24580669403076 149.7415074146693,103.66879323124886"></polygon><polygon fill="rgb(119,57,0)" stroke="rgb(119,57,0)" points="177.52998701212164,68.9627268910408 179.9738209650218,109.10540762543678 149.27699545431642,98.24580669403076"></polygon><polygon fill="rgb(119,57,0)" stroke="rgb(119,57,0)" points="179.9738209650218,109.10540762543678 149.7415074146693,103.66879323124886 149.27699545431642,98.24580669403076"></polygon><polygon fill="rgb(119,57,0)" stroke="rgb(119,57,0)" points="152.17991868565605,45.49501407146454 210.37769955228168,71.99620997905731 177.52998701212164,68.9627268910408"></polygon><polygon fill="rgb(119,57,0)" stroke="rgb(119,57,0)" points="149.3866988232503,110.36223548650742 144.77458216461173,106.22021958231926 149.7415074146693,103.66879323124886"></polygon><polygon fill="rgb(119,57,0)" stroke="rgb(119,57,0)" points="149.3866988232503,110.36223548650742 149.7415074146693,103.66879323124886 179.9738209650218,109.10540762543678"></polygon><polygon fill="rgb(119,57,0)" stroke="rgb(119,57,0)" points="149.3866988232503,110.36223548650742 179.9738209650218,109.10540762543678 151.68484578286416,120.3012312501669"></polygon><polygon fill="rgb(119,57,0)" stroke="rgb(119,57,0)" points="188.5346663605676,104.22359576821327 179.9738209650218,109.10540762543678 177.52998701212164,68.9627268910408"></polygon><polygon fill="rgb(119,57,0)" stroke="rgb(119,57,0)" points="177.52998701212164,68.9627268910408 210.37769955228168,71.99620997905731 188.5346663605676,104.22359576821327"></polygon><polygon fill="rgb(119,57,0)" stroke="rgb(119,57,0)" points="151.68484578286416,120.3012312501669 145.3021552470832,112.3263481259346 149.3866988232503,110.36223548650742"></polygon><polygon fill="rgb(247,132,25)" stroke="rgb(247,132,25)" points="165.0007619422977,104.88918429613113 136.47723960707572,165.19613340497017 151.68484578286416,120.3012312501669"></polygon><polygon fill="rgb(228,119,25)" stroke="rgb(228,119,25)" points="188.5346663605676,104.22359576821327 210.37769955228168,71.99620997905731 198.7047590507425,90.21505934000015"></polygon><polygon fill="rgb(247,132,25)" stroke="rgb(247,132,25)" points="154.57981095915738,135.61624037474394 136.47723960707572,165.19613340497017 165.0007619422977,104.88918429613113"></polygon><polygon fill="rgb(225,119,25)" stroke="rgb(225,119,25)" points="268.7458352281294,173.89060831069946 314.96996453844804,82.4744485616684 298.03005569157745,123.82259061932564"></polygon><polygon fill="rgb(228,119,25)" stroke="rgb(228,119,25)" points="174.968290529157,171.57882857322693 141.73667365660958,211.85822916030884 136.47723960707572,165.19613340497017"></polygon><polygon fill="rgb(228,119,25)" stroke="rgb(228,119,25)" points="136.47723960707572,165.19613340497017 154.57981095915738,135.61624037474394 174.968290529157,171.57882857322693"></polygon><polygon fill="rgb(119,57,0)" stroke="rgb(119,57,0)" points="276.83835123890253,40.939783573150635 236.32009128466515,65.01873922348022 297.4609039261966,-0.6002566814422607"></polygon><polygon fill="rgb(119,57,0)" stroke="rgb(119,57,0)" points="270.80320433724864,84.48246586322784 236.32009128466515,65.01873922348022 276.83835123890253,40.939783573150635"></polygon><polygon fill="rgb(247,132,25)" stroke="rgb(247,132,25)" points="210.37769955228168,71.99620997905731 236.32009128466515,65.01873922348022 220.82655041342537,84.62821704149246"></polygon><polygon fill="rgb(247,132,25)" stroke="rgb(247,132,25)" points="220.82655041342537,84.62821704149246 198.7047590507425,90.21505934000015 210.37769955228168,71.99620997905731"></polygon><polygon fill="rgb(119,57,0)" stroke="rgb(119,57,0)" points="276.83835123890253,40.939783573150635 289.9092878671536,83.0706678032875 270.80320433724864,84.48246586322784"></polygon><polygon fill="rgb(119,57,0)" stroke="rgb(119,57,0)" points="297.4609039261966,-0.6002566814422607 317.07091980013865,22.619247436523438 276.83835123890253,40.939783573150635"></polygon><polygon fill="rgb(119,57,0)" stroke="rgb(119,57,0)" points="320.1232002108013,54.22383916378021 289.9092878671536,83.0706678032875 276.83835123890253,40.939783573150635"></polygon><polygon fill="rgb(119,57,0)" stroke="rgb(119,57,0)" points="276.83835123890253,40.939783573150635 317.07091980013865,22.619247436523438 320.1232002108013,54.22383916378021"></polygon><polygon fill="rgb(228,119,25)" stroke="rgb(228,119,25)" points="220.82655041342537,84.62821704149246 236.32009128466515,65.01873922348022 270.80320433724864,84.48246586322784"></polygon><polygon fill="rgb(119,57,0)" stroke="rgb(119,57,0)" points="289.9092878671536,83.0706678032875 320.1232002108013,54.22383916378021 318.97509994079473,61.14064848423004"></polygon><polygon fill="rgb(119,57,0)" stroke="rgb(119,57,0)" points="318.4800916792442,69.15360873937607 289.9092878671536,83.0706678032875 318.97509994079473,61.14064848423004"></polygon><polygon fill="rgb(119,57,0)" stroke="rgb(119,57,0)" points="314.96996453844804,82.4744485616684 270.80320433724864,84.48246586322784 289.9092878671536,83.0706678032875"></polygon><polygon fill="rgb(119,57,0)" stroke="rgb(119,57,0)" points="318.4800916792442,69.15360873937607 314.96996453844804,82.4744485616684 289.9092878671536,83.0706678032875"></polygon><polygon fill="rgb(192,172,157)" stroke="rgb(192,172,157)" points="268.7458352281294,173.89060831069946 203.6259901255246,183.6616559624672 206.10596571470046,173.01551818847656"></polygon><polygon fill="rgb(225,119,25)" stroke="rgb(225,119,25)" points="203.6259901255246,183.6616559624672 141.73667365660958,211.85822916030884 174.968290529157,171.57882857322693"></polygon><polygon fill="rgb(225,119,25)" stroke="rgb(225,119,25)" points="174.968290529157,171.57882857322693 194.75482367733002,175.5320252776146 203.6259901255246,183.6616559624672"></polygon><polygon fill="rgb(205,98,0)" stroke="rgb(205,98,0)" points="175.20331171799126,111.3937194943428 165.0007619422977,104.88918429613113 198.7047590507425,90.21505934000015"></polygon><polygon fill="rgb(228,116,36)" stroke="rgb(228,116,36)" points="165.0007619422977,104.88918429613113 175.20331171799126,111.3937194943428 172.28934201674065,124.63289999961853"></polygon><polygon fill="rgb(247,132,25)" stroke="rgb(247,132,25)" points="165.0007619422977,104.88918429613113 172.28934201674065,124.63289999961853 154.57981095915738,135.61624037474394"></polygon><polygon fill="rgb(119,57,0)" stroke="rgb(119,57,0)" points="324.1732181817265,54.369091153144836 318.97509994079473,61.14064848423004 320.1232002108013,54.22383916378021"></polygon><polygon fill="rgb(192,172,157)" stroke="rgb(192,172,157)" points="175.63410967979917,165.87471482157707 206.10596571470046,173.01551818847656 203.6259901255246,183.6616559624672"></polygon><polygon fill="rgb(119,57,0)" stroke="rgb(119,57,0)" points="318.4800916792442,69.15360873937607 318.97509994079473,61.14064848423004 323.6216201045527,61.54571032524109"></polygon><polygon fill="rgb(119,57,0)" stroke="rgb(119,57,0)" points="314.96996453844804,82.4744485616684 318.4800916792442,69.15360873937607 322.3069537203032,69.387804210186"></polygon><polygon fill="rgb(192,172,157)" stroke="rgb(192,172,157)" points="175.63410967979917,165.87471482157707 194.75482367733002,175.5320252776146 174.968290529157,171.57882857322693"></polygon><polygon fill="rgb(205,98,0)" stroke="rgb(205,98,0)" points="174.968290529157,171.57882857322693 154.57981095915738,135.61624037474394 172.28934201674065,124.63289999961853"></polygon><polygon fill="rgb(205,98,0)" stroke="rgb(205,98,0)" points="198.7047590507425,90.21505934000015 189.28798820491943,101.18927803635597 175.20331171799126,111.3937194943428"></polygon><polygon fill="rgb(192,172,157)" stroke="rgb(192,172,157)" points="206.10596571470046,173.01551818847656 240.88553104721194,167.4111703336239 268.7458352281294,173.89060831069946"></polygon><polygon fill="rgb(36,51,67)" stroke="rgb(36,51,67)" points="191.21467067992603,107.08325329422951 175.20331171799126,111.3937194943428 189.28798820491943,101.18927803635597"></polygon><polygon fill="rgb(247,132,25)" stroke="rgb(247,132,25)" points="172.28934201674065,124.63289999961853 175.20331171799126,111.3937194943428 191.21467067992603,107.08325329422951"></polygon><polygon fill="rgb(247,132,25)" stroke="rgb(247,132,25)" points="270.0939714106787,79.0795926451683 314.96996453844804,82.4744485616684 344.8340384839007,126.9908087849617"></polygon><polygon fill="rgb(205,98,0)" stroke="rgb(205,98,0)" points="189.28798820491943,101.18927803635597 198.7047590507425,90.21505934000015 191.21467067992603,107.08325329422951"></polygon><polygon fill="rgb(247,132,25)" stroke="rgb(247,132,25)" points="194.01260935295045,95.08439147472382 198.7047590507425,90.21505934000015 220.82655041342537,84.62821704149246"></polygon><polygon fill="rgb(225,119,25)" stroke="rgb(225,119,25)" points="268.7458352281294,173.89060831069946 262.48156385532457,164.6694831252098 263.9277661877744,156.60254257917404"></polygon><polygon fill="rgb(225,119,25)" stroke="rgb(225,119,25)" points="263.9277661877744,156.60254257917404 341.1806663522693,186.30809992551804 268.7458352281294,173.89060831069946"></polygon><polygon fill="rgb(192,172,157)" stroke="rgb(192,172,157)" points="268.7458352281294,173.89060831069946 240.88553104721194,167.4111703336239 245.23210920180392,153.72345462441444"></polygon><polygon fill="rgb(192,172,157)" stroke="rgb(192,172,157)" points="262.48156385532457,164.6694831252098 268.7458352281294,173.89060831069946 245.23210920180392,153.72345462441444"></polygon><polygon fill="rgb(192,172,157)" stroke="rgb(192,172,157)" points="175.63410967979917,165.87471482157707 192.0755519587069,163.00416898727417 206.10596571470046,173.01551818847656"></polygon><polygon fill="rgb(192,172,157)" stroke="rgb(192,172,157)" points="240.88553104721194,167.4111703336239 206.10596571470046,173.01551818847656 192.0755519587069,163.00416898727417"></polygon><polygon fill="rgb(205,98,0)" stroke="rgb(205,98,0)" points="220.82655041342537,84.62821704149246 270.0939714106787,79.0795926451683 248.27777286317823,94.18290024995804"></polygon><polygon fill="rgb(205,98,0)" stroke="rgb(205,98,0)" points="248.27777286317823,94.18290024995804 231.75992149471028,90.86446416378021 220.82655041342537,84.62821704149246"></polygon><polygon fill="rgb(247,132,25)" stroke="rgb(247,132,25)" points="220.82655041342537,84.62821704149246 214.47901214380943,89.9980998635292 194.01260935295045,95.08439147472382"></polygon><polygon fill="rgb(205,98,0)" stroke="rgb(205,98,0)" points="231.75992149471028,90.86446416378021 221.82173105347442,99.85642570257187 220.82655041342537,84.62821704149246"></polygon><polygon fill="rgb(225,119,25)" stroke="rgb(225,119,25)" points="221.82173105347442,99.85642570257187 214.47901214380943,89.9980998635292 220.82655041342537,84.62821704149246"></polygon><polygon fill="rgb(36,51,67)" stroke="rgb(36,51,67)" points="221.82173105347442,99.85642570257187 231.75992149471028,90.86446416378021 248.27777286317823,94.18290024995804"></polygon><polygon fill="rgb(228,116,36)" stroke="rgb(228,116,36)" points="270.0939714106787,79.0795926451683 246.07625737702492,108.29214704036713 248.27777286317823,94.18290024995804"></polygon><polygon fill="rgb(247,132,25)" stroke="rgb(247,132,25)" points="270.0939714106787,79.0795926451683 344.8340384839007,126.9908087849617 278.35894307101785,109.20350024104118"></polygon><polygon fill="rgb(247,132,25)" stroke="rgb(247,132,25)" points="278.35894307101785,109.20350024104118 246.07625737702492,108.29214704036713 270.0939714106787,79.0795926451683"></polygon><polygon fill="rgb(192,172,157)" stroke="rgb(192,172,157)" points="245.23210920180392,153.72345462441444 263.9277661877744,156.60254257917404 262.48156385532457,164.6694831252098"></polygon><polygon fill="rgb(192,172,157)" stroke="rgb(192,172,157)" points="175.63410967979917,165.87471482157707 174.968290529157,171.57882857322693 167.29192046548542,129.02495413273573"></polygon><polygon fill="rgb(214,194,178)" stroke="rgb(214,194,178)" points="162.14777047872212,112.67343017458916 167.29192046548542,129.02495413273573 174.968290529157,171.57882857322693"></polygon><polygon fill="rgb(192,172,157)" stroke="rgb(192,172,157)" points="192.0755519587069,163.00416898727417 226.83804221192463,156.93491253256798 240.88553104721194,167.4111703336239"></polygon><polygon fill="rgb(192,172,157)" stroke="rgb(192,172,157)" points="240.88553104721194,167.4111703336239 226.83804221192463,156.93491253256798 245.23210920180392,153.72345462441444"></polygon><polygon fill="rgb(228,119,25)" stroke="rgb(228,119,25)" points="263.9277661877744,156.60254257917404 278.35894307101785,109.20350024104118 344.8340384839007,126.9908087849617"></polygon><polygon fill="rgb(228,119,25)" stroke="rgb(228,119,25)" points="344.8340384839007,126.9908087849617 341.1806663522693,186.30809992551804 263.9277661877744,156.60254257917404"></polygon><polygon fill="rgb(247,132,25)" stroke="rgb(247,132,25)" points="246.07625737702492,108.29214704036713 221.82173105347442,99.85642570257187 248.27777286317823,94.18290024995804"></polygon><polygon fill="rgb(228,116,36)" stroke="rgb(228,116,36)" points="214.47901214380943,89.9980998635292 221.82173105347442,99.85642570257187 189.24224375312292,87.19974672794342"></polygon><polygon fill="rgb(205,98,0)" stroke="rgb(205,98,0)" points="263.9277661877744,156.60254257917404 246.07625737702492,108.29214704036713 278.35894307101785,109.20350024104118"></polygon><polygon fill="rgb(247,132,25)" stroke="rgb(247,132,25)" points="192.61294691868375,88.51471811532974 189.24224375312292,87.19974672794342 221.82173105347442,99.85642570257187"></polygon><polygon fill="rgb(192,172,157)" stroke="rgb(192,172,157)" points="192.0755519587069,163.00416898727417 175.63410967979917,165.87471482157707 166.37655021142518,133.86624671774916"></polygon><polygon fill="rgb(192,172,157)" stroke="rgb(192,172,157)" points="226.83804221192463,156.93491253256798 192.0755519587069,163.00416898727417 166.37655021142518,133.86624671774916"></polygon><polygon fill="rgb(228,119,25)" stroke="rgb(228,119,25)" points="192.61294691868375,88.51471811532974 246.07625737702492,108.29214704036713 263.9277661877744,156.60254257917404"></polygon><polygon fill="rgb(192,172,157)" stroke="rgb(192,172,157)" points="200.05343391030306,121.89091627299786 263.9277661877744,156.60254257917404 245.23210920180392,153.72345462441444"></polygon><polygon fill="rgb(214,194,178)" stroke="rgb(214,194,178)" points="194.23533793238767,105.05073779821396 263.9277661877744,156.60254257917404 200.05343391030306,121.89091627299786"></polygon><polygon fill="rgb(214,194,178)" stroke="rgb(214,194,178)" points="263.9277661877744,156.60254257917404 194.23533793238767,105.05073779821396 192.61294691868375,88.51471811532974"></polygon><polygon fill="rgb(192,172,157)" stroke="rgb(192,172,157)" points="166.37655021142518,133.86624671774916 196.48361417429874,127.46787612885237 226.83804221192463,156.93491253256798"></polygon><polygon fill="rgb(192,172,157)" stroke="rgb(192,172,157)" points="226.83804221192463,156.93491253256798 196.48361417429874,127.46787612885237 245.23210920180392,153.72345462441444"></polygon><polygon fill="rgb(192,172,157)" stroke="rgb(192,172,157)" points="245.23210920180392,153.72345462441444 196.48361417429874,127.46787612885237 200.05343391030306,121.89091627299786"></polygon><polygon fill="rgb(192,172,157)" stroke="rgb(192,172,157)" points="162.14777047872212,112.67343017458916 161.44576659764334,106.29982623457909 166.37655021142518,133.86624671774916"></polygon><polygon fill="rgb(0,0,0)" stroke="rgb(0,0,0)" points="160.63465548352315,89.9907438158989 163.13681738320292,87.1689327955246 183.3559297185011,81.7872651219368"></polygon><polygon fill="rgb(0,0,0)" stroke="rgb(0,0,0)" points="192.61294691868375,88.51471811532974 185.3641140253119,83.46909242868423 183.3559297185011,81.7872651219368"></polygon><polygon fill="rgb(0,0,0)" stroke="rgb(0,0,0)" points="183.3559297185011,81.7872651219368 185.3641140253119,83.46909242868423 160.63465548352315,89.9907438158989"></polygon><polygon fill="rgb(192,172,157)" stroke="rgb(192,172,157)" points="166.37655021142518,133.86624671774916 161.44576659764334,106.29982623457909 189.4745500098204,99.43339306116104"></polygon><polygon fill="rgb(192,172,157)" stroke="rgb(192,172,157)" points="189.4745500098204,99.43339306116104 196.48361417429874,127.46787612885237 166.37655021142518,133.86624671774916"></polygon><polygon fill="rgb(0,0,0)" stroke="rgb(0,0,0)" points="192.61294691868375,88.51471811532974 194.23533793238767,105.05073779821396 189.4745500098204,99.43339306116104"></polygon><polygon fill="rgb(0,0,0)" stroke="rgb(0,0,0)" points="189.4745500098204,99.43339306116104 185.3641140253119,83.46909242868423 192.61294691868375,88.51471811532974"></polygon><polygon fill="rgb(0,0,0)" stroke="rgb(0,0,0)" points="160.63465548352315,89.9907438158989 185.3641140253119,83.46909242868423 189.4745500098204,99.43339306116104"></polygon><polygon fill="rgb(0,0,0)" stroke="rgb(0,0,0)" points="189.4745500098204,99.43339306116104 161.44576659764334,106.29982623457909 160.63465548352315,89.9907438158989"></polygon><polygon fill="rgb(192,172,157)" stroke="rgb(192,172,157)" points="194.23533793238767,105.05073779821396 200.05343391030306,121.89091627299786 196.48361417429874,127.46787612885237"></polygon><polygon fill="rgb(192,172,157)" stroke="rgb(192,172,157)" points="196.48361417429874,127.46787612885237 189.4745500098204,99.43339306116104 194.23533793238767,105.05073779821396"></polygon></svg>